<?xml version="1.0" encoding="utf-8"?>
<!-- Generator: Adobe Illustrator 24.0.2, SVG Export Plug-In . SVG Version: 6.00 Build 0)  -->
<svg version="1.1" id="Capa_1" xmlns="http://www.w3.org/2000/svg" xmlns:xlink="http://www.w3.org/1999/xlink" x="0px" y="0px"
	 viewBox="0 0 142 142" style="enable-background:new 0 0 142 142;" xml:space="preserve">
<style type="text/css">
	.st0{fill:#212526;}
	.st1{fill:#FFFFFF;}
	.st2{fill:#FF5159;}
</style>
<path class="st0" d="M71,0c1.16,0,2.32,0.03,3.48,0.09c1.16,0.06,2.32,0.14,3.48,0.26s2.31,0.26,3.46,0.43
	c1.15,0.17,2.29,0.37,3.43,0.6s2.27,0.48,3.4,0.76c1.13,0.28,2.25,0.59,3.36,0.93c1.11,0.34,2.21,0.7,3.31,1.09s2.18,0.81,3.25,1.25
	c1.07,0.45,2.14,0.92,3.19,1.41c1.05,0.5,2.09,1.02,3.11,1.57c1.02,0.55,2.04,1.12,3.03,1.72c1,0.6,1.98,1.22,2.94,1.86
	c0.97,0.65,1.92,1.31,2.85,2.01c0.93,0.69,1.85,1.41,2.75,2.14c0.9,0.74,1.78,1.5,2.64,2.28s1.7,1.58,2.52,2.4
	c0.82,0.82,1.62,1.66,2.4,2.52c0.78,0.86,1.54,1.74,2.28,2.64c0.74,0.9,1.45,1.81,2.14,2.75c0.69,0.93,1.36,1.88,2.01,2.85
	c0.65,0.97,1.27,1.95,1.86,2.94c0.6,1,1.17,2.01,1.72,3.03c0.55,1.02,1.07,2.06,1.57,3.11c0.5,1.05,0.97,2.11,1.41,3.19
	c0.44,1.07,0.86,2.16,1.25,3.25c0.39,1.09,0.76,2.2,1.09,3.31c0.34,1.11,0.65,2.23,0.93,3.36s0.54,2.26,0.76,3.4s0.43,2.28,0.6,3.43
	s0.31,2.3,0.43,3.46s0.2,2.31,0.26,3.47c0.06,1.16,0.09,2.32,0.09,3.48s-0.03,2.32-0.09,3.48c-0.06,1.16-0.14,2.32-0.26,3.48
	s-0.26,2.31-0.43,3.46s-0.37,2.29-0.6,3.43s-0.48,2.27-0.76,3.4c-0.28,1.13-0.59,2.25-0.93,3.36c-0.34,1.11-0.7,2.21-1.09,3.31
	c-0.39,1.09-0.81,2.18-1.25,3.25c-0.44,1.07-0.92,2.14-1.41,3.19c-0.5,1.05-1.02,2.09-1.57,3.11c-0.55,1.03-1.12,2.04-1.72,3.03
	c-0.6,1-1.22,1.98-1.86,2.94c-0.65,0.97-1.31,1.92-2.01,2.85c-0.69,0.93-1.41,1.85-2.14,2.75c-0.74,0.9-1.5,1.78-2.28,2.64
	s-1.58,1.7-2.4,2.52c-0.82,0.82-1.66,1.62-2.52,2.4s-1.74,1.54-2.64,2.28c-0.9,0.74-1.81,1.45-2.75,2.14
	c-0.93,0.69-1.88,1.36-2.85,2.01c-0.97,0.65-1.95,1.27-2.94,1.86c-1,0.6-2.01,1.17-3.03,1.72c-1.02,0.55-2.06,1.07-3.11,1.57
	c-1.05,0.5-2.11,0.97-3.19,1.41c-1.07,0.44-2.16,0.86-3.25,1.25s-2.2,0.76-3.31,1.09c-1.11,0.34-2.23,0.65-3.36,0.93
	c-1.13,0.28-2.26,0.54-3.4,0.76s-2.28,0.42-3.43,0.6c-1.15,0.17-2.3,0.31-3.46,0.43c-1.16,0.11-2.31,0.2-3.48,0.26
	C73.32,141.97,72.16,142,71,142c-1.16,0-2.32-0.03-3.48-0.09c-1.16-0.06-2.32-0.14-3.48-0.26c-1.16-0.11-2.31-0.26-3.46-0.43
	c-1.15-0.17-2.29-0.37-3.43-0.6s-2.27-0.48-3.4-0.76c-1.13-0.28-2.25-0.59-3.36-0.93c-1.11-0.34-2.21-0.7-3.31-1.09
	c-1.09-0.39-2.18-0.81-3.25-1.25c-1.07-0.45-2.14-0.92-3.19-1.41c-1.05-0.5-2.09-1.02-3.11-1.57c-1.02-0.55-2.04-1.12-3.03-1.72
	s-1.98-1.22-2.94-1.86c-0.97-0.65-1.92-1.31-2.85-2.01c-0.93-0.69-1.85-1.41-2.75-2.14c-0.9-0.74-1.78-1.5-2.64-2.28
	s-1.7-1.58-2.52-2.4c-0.82-0.82-1.62-1.66-2.4-2.52s-1.54-1.74-2.28-2.64c-0.74-0.9-1.45-1.81-2.14-2.75
	c-0.69-0.93-1.36-1.88-2.01-2.85c-0.65-0.97-1.27-1.95-1.86-2.94c-0.6-1-1.17-2.01-1.72-3.03c-0.55-1.02-1.07-2.06-1.57-3.11
	c-0.5-1.05-0.97-2.11-1.41-3.19c-0.44-1.07-0.86-2.16-1.25-3.25c-0.39-1.09-0.76-2.2-1.09-3.31c-0.34-1.11-0.65-2.23-0.93-3.36
	c-0.28-1.13-0.54-2.26-0.76-3.4s-0.43-2.28-0.6-3.43s-0.31-2.3-0.43-3.46s-0.2-2.31-0.26-3.48C0.03,73.32,0,72.16,0,71
	s0.03-2.32,0.09-3.48c0.06-1.16,0.14-2.32,0.26-3.47s0.26-2.31,0.43-3.46s0.37-2.29,0.6-3.43s0.48-2.27,0.76-3.4
	s0.59-2.25,0.93-3.36c0.34-1.11,0.7-2.21,1.09-3.31c0.39-1.09,0.81-2.18,1.25-3.25c0.44-1.07,0.92-2.13,1.41-3.19
	c0.5-1.05,1.02-2.09,1.57-3.11c0.55-1.03,1.12-2.04,1.72-3.03c0.6-1,1.22-1.98,1.86-2.94c0.65-0.97,1.31-1.92,2.01-2.85
	s1.41-1.85,2.14-2.75c0.74-0.9,1.5-1.78,2.28-2.64c0.78-0.86,1.58-1.7,2.4-2.52c0.82-0.82,1.66-1.62,2.52-2.4s1.74-1.54,2.64-2.28
	c0.9-0.74,1.81-1.45,2.75-2.14c0.93-0.69,1.88-1.36,2.85-2.01c0.97-0.65,1.95-1.27,2.94-1.86c1-0.6,2.01-1.17,3.03-1.72
	c1.02-0.55,2.06-1.07,3.11-1.57c1.05-0.5,2.11-0.97,3.19-1.41c1.07-0.44,2.16-0.86,3.25-1.25c1.09-0.39,2.2-0.76,3.31-1.09
	c1.11-0.34,2.23-0.65,3.36-0.93c1.13-0.28,2.26-0.54,3.4-0.76s2.28-0.43,3.43-0.6c1.15-0.17,2.3-0.31,3.46-0.43s2.31-0.2,3.48-0.26
	C68.68,0.03,69.84,0,71,0z"/>
<path class="st1" d="M42.14,93.4v-5c0-0.2,0.04-0.4,0.12-0.58s0.19-0.35,0.33-0.5c0.14-0.14,0.31-0.25,0.5-0.33
	c0.19-0.08,0.38-0.12,0.58-0.12h55c0.2,0,0.4,0.04,0.58,0.12c0.19,0.08,0.35,0.19,0.5,0.33c0.14,0.14,0.25,0.31,0.33,0.5
	s0.12,0.38,0.12,0.58v5c0,0.2-0.04,0.4-0.12,0.58s-0.19,0.35-0.33,0.5c-0.14,0.14-0.31,0.25-0.5,0.33
	c-0.19,0.08-0.38,0.12-0.58,0.12h-55c-0.2,0-0.4-0.04-0.58-0.12c-0.19-0.08-0.35-0.19-0.5-0.33c-0.14-0.14-0.25-0.31-0.33-0.5
	S42.14,93.61,42.14,93.4z"/>
<path class="st1" d="M42.14,67.98v-5.2c0-0.19,0.04-0.37,0.11-0.55c0.07-0.17,0.18-0.33,0.31-0.46c0.13-0.13,0.29-0.24,0.46-0.31
	c0.18-0.07,0.36-0.11,0.55-0.11h49.82c0.19,0,0.37,0.04,0.55,0.11c0.18,0.07,0.33,0.18,0.46,0.31c0.13,0.13,0.24,0.29,0.31,0.46
	c0.07,0.17,0.11,0.36,0.11,0.55v5.2c0,0.19-0.04,0.37-0.11,0.55c-0.07,0.17-0.18,0.33-0.31,0.46c-0.13,0.13-0.29,0.24-0.46,0.31
	c-0.18,0.07-0.36,0.11-0.55,0.11H43.57c-0.19,0-0.37-0.04-0.55-0.11c-0.18-0.07-0.33-0.18-0.46-0.31c-0.13-0.13-0.24-0.29-0.31-0.46
	C42.17,68.35,42.14,68.17,42.14,67.98z"/>
<path class="st2" d="M87.79,82.82H44.24c-1.08,0-1.96-0.87-1.96-1.94v-5.31c0-1.07,0.88-1.94,1.96-1.94h43.55
	c1.08,0,1.96,0.87,1.96,1.94v5.31C89.74,81.95,88.87,82.82,87.79,82.82z"/>
<path class="st1" d="M42.14,54.49V49.4c0-0.2,0.04-0.39,0.11-0.57c0.08-0.18,0.18-0.34,0.32-0.48c0.14-0.14,0.3-0.25,0.48-0.32
	c0.18-0.08,0.37-0.11,0.57-0.11h39.24c0.2,0,0.39,0.04,0.57,0.11c0.18,0.08,0.34,0.18,0.48,0.32c0.14,0.14,0.25,0.3,0.32,0.48
	c0.08,0.18,0.11,0.37,0.11,0.57v5.09c0,0.2-0.04,0.39-0.11,0.57c-0.08,0.18-0.18,0.34-0.32,0.48c-0.14,0.14-0.3,0.25-0.48,0.32
	c-0.18,0.08-0.37,0.11-0.57,0.11H43.62c-0.2,0-0.39-0.04-0.57-0.11s-0.34-0.18-0.48-0.32c-0.14-0.14-0.25-0.3-0.32-0.48
	C42.18,54.87,42.14,54.68,42.14,54.49z"/>
</svg>
