<?xml version="1.0" encoding="utf-8"?>
<!-- Generator: Adobe Illustrator 24.0.2, SVG Export Plug-In . SVG Version: 6.00 Build 0)  -->
<svg version="1.1" id="Capa_1" xmlns="http://www.w3.org/2000/svg" xmlns:xlink="http://www.w3.org/1999/xlink" x="0px" y="0px"
	 viewBox="0 0 656 102.38" style="enable-background:new 0 0 656 102.38;" xml:space="preserve">
<style type="text/css">
	.st0{fill:#FFFFFF;}
	.st1{fill:#FF5159;}
</style>
<g>
	<path class="st0" d="M0,92.98v-6.23c0-0.65,0.12-1.27,0.37-1.87c0.25-0.6,0.6-1.13,1.06-1.59c0.46-0.46,0.99-0.81,1.59-1.06
		s1.22-0.37,1.87-0.37h105.53c0.65,0,1.27,0.13,1.87,0.37s1.13,0.6,1.59,1.06c0.46,0.46,0.81,0.99,1.06,1.59
		c0.25,0.6,0.37,1.22,0.37,1.87v6.23c0,0.65-0.12,1.27-0.37,1.87s-0.6,1.13-1.06,1.59c-0.46,0.46-0.99,0.81-1.59,1.06
		c-0.6,0.25-1.22,0.37-1.87,0.37H4.89c-0.65,0-1.27-0.12-1.87-0.37c-0.6-0.25-1.13-0.6-1.59-1.06c-0.46-0.46-0.81-0.99-1.06-1.59
		S0,93.62,0,92.98z"/>
	<path class="st0" d="M0,42.58v-6.86c0-0.61,0.12-1.19,0.35-1.75c0.23-0.56,0.56-1.06,0.99-1.49c0.43-0.43,0.92-0.76,1.49-0.99
		c0.56-0.23,1.14-0.35,1.75-0.35h95.49c0.61,0,1.19,0.12,1.75,0.35c0.56,0.23,1.06,0.56,1.49,0.99c0.43,0.43,0.76,0.92,0.99,1.49
		c0.23,0.56,0.35,1.14,0.35,1.75v6.86c0,0.61-0.12,1.19-0.35,1.75c-0.23,0.56-0.56,1.06-0.99,1.49c-0.43,0.43-0.92,0.76-1.49,0.99
		c-0.56,0.23-1.14,0.35-1.75,0.35H4.58c-0.61,0-1.19-0.12-1.75-0.35s-1.06-0.56-1.49-0.99c-0.43-0.43-0.76-0.92-0.99-1.49
		C0.12,43.77,0,43.19,0,42.58z"/>
	<path class="st1" d="M90.69,73.81H4.18c-2.14,0-3.88-1.73-3.88-3.85V59.4c0-2.12,1.74-3.85,3.88-3.85h86.51
		c2.14,0,3.88,1.73,3.88,3.85v10.56C94.57,72.08,92.83,73.81,90.69,73.81z"/>
	<path class="st0" d="M516.31,87.1c6.66,0,12.7,0.07,18.74-0.01c11.94-0.18,18.94-5.72,21.41-17.39c2.6-12.26,2.54-24.68,0.56-36.98
		c-1.77-11.04-7.09-15.95-18.2-17.24c-5.86-0.68-22.58-0.58-22.58-0.58s0.07,43.25,0.07,62.54
		C516.31,80.39,516.31,83.34,516.31,87.1z M500.91,1.16c15.4,0.44,30.54,0.08,45.51,1.52c14.12,1.36,23.06,10.66,25.76,24.72
		c2.95,15.36,2.89,30.87-0.12,46.2c-3.19,16.26-12.7,25.18-29.33,26.32c-13.79,0.94-27.69,0.19-41.82,0.19V1.16z"/>
	<path class="st0" d="M154.95,87.1c6.66,0,12.7,0.07,18.74-0.01c11.94-0.18,18.94-5.72,21.41-17.39c2.6-12.26,2.54-24.68,0.56-36.98
		c-1.77-11.04-7.09-15.95-18.2-17.24c-5.86-0.68-22.58-0.58-22.58-0.58s0.07,43.25,0.07,62.54
		C154.95,80.39,154.95,83.34,154.95,87.1z M139.56,1.16c15.4,0.44,30.54,0.08,45.51,1.52c14.12,1.36,23.06,10.66,25.76,24.72
		c2.95,15.36,2.89,30.87-0.12,46.2c-3.19,16.26-12.7,25.18-29.33,26.32c-13.79,0.94-27.69,0.19-41.82,0.19V1.16z"/>
	<path class="st0" d="M292.66,53.23c0.08-5.91-0.34-11.83-1.16-17.73c-1.02-7.31-3.03-14.38-9.77-18.71
		c-13.47-8.66-31.26-1.96-35.06,13.48c-3.36,13.64-3.25,27.54-0.38,41.25c2.48,11.84,9.26,16.99,21.4,17.43
		c13.14,0.48,20.61-5.11,23.17-18.07C292.01,65.03,292.58,59.14,292.66,53.23z M308.52,53.67c-0.18,8.53-1.34,17.02-3.57,25.68
		c-3.52,13.64-13.31,20.54-27.12,22.37c-8.14,1.07-16.16,0.92-24.07-1.08c-13.81-3.5-20.69-13.34-23.27-26.66
		c-3.06-15.8-3.16-31.67,0.65-47.32c4.23-17.4,15.79-26.21,34.33-26.64c4.95-0.11,10,0.22,14.86,1.12
		c15.58,2.89,23.44,13.4,26.14,28.18C307.97,37.57,308.68,45.64,308.52,53.67z"/>
	<path class="st0" d="M466.03,53.22c0.1-5.94-0.26-11.89-1.09-17.78c-1.03-7.31-3.05-14.37-9.81-18.68
		c-13.51-8.63-31.23-1.91-35.02,13.56c-3.35,13.64-3.25,27.54-0.36,41.25c2.4,11.43,8.03,16.35,19.83,17.18
		c13.61,0.95,22.24-3.95,24.68-17.52C465.33,65.28,465.92,59.26,466.03,53.22z M481.98,53.67c-0.17,8.5-1.34,16.97-3.58,25.68
		c-3.52,13.64-13.3,20.54-27.12,22.37c-8.14,1.08-16.16,0.93-24.07-1.07c-13.81-3.5-20.69-13.34-23.27-26.66
		c-3.06-15.8-3.16-31.67,0.65-47.32c4.23-17.4,15.79-26.21,34.33-26.64c4.95-0.11,10,0.22,14.86,1.12
		c15.57,2.89,23.44,13.4,26.14,28.18C481.43,37.61,482.15,45.65,481.98,53.67z"/>
	<polygon class="st0" points="609.84,57.76 609.84,87.08 656,87.08 656,100.5 594.24,100.5 594.24,1.84 655.66,1.84 655.66,14.7 
		609.58,14.71 609.6,44.53 646.34,44.53 646.34,57.76 	"/>
	<path class="st0" d="M389.33,15.76c-8.51-0.61-16.43-1.22-24.36-1.71c-2.15-0.14-4.34-0.12-6.47,0.16
		c-8.98,1.15-14.26,5.84-16.12,15.12c-2.76,13.76-2.75,27.7-0.56,41.48c2.14,13.43,9.63,18.63,23.45,17.67
		c7.78-0.54,15.55-1.05,24.01-1.63c0,3.51-0.25,11.86-0.25,11.86c-2.95,1.62-19.58,3.42-24.49,3.6c-5.09,0.19-10.21-0.07-15.2-1.15
		c-12.95-2.69-20.02-11.24-22.4-23.69c-3.42-17.92-3.66-35.99,0.34-53.82c3.35-14.96,12.38-22,27.73-23.04
		c5.58-0.38,11.2-0.32,16.77,0.2c2.79,0.26,5.56,0.63,8.32,1.12c1.38,0.25,2.75,0.52,4.11,0.82c1.27,0.28,4.71,1.46,5.06,1.66
		C389.26,4.4,389.33,12.47,389.33,15.76z"/>
	<path class="st0" d="M0,15.72v-6.5C0,8.59,0.12,7.98,0.36,7.4s0.59-1.1,1.03-1.54s0.96-0.79,1.54-1.03s1.19-0.36,1.82-0.36H79.1
		c0.63,0,1.24,0.12,1.82,0.36c0.58,0.24,1.1,0.59,1.54,1.03c0.45,0.45,0.79,0.96,1.03,1.54c0.24,0.58,0.36,1.19,0.36,1.82v6.5
		c0,0.63-0.12,1.24-0.36,1.82c-0.24,0.58-0.59,1.1-1.03,1.54c-0.45,0.45-0.96,0.79-1.54,1.03c-0.58,0.24-1.19,0.36-1.82,0.36H4.76
		c-0.63,0-1.24-0.12-1.82-0.36s-1.1-0.59-1.54-1.03c-0.45-0.44-0.79-0.96-1.03-1.54S0,16.35,0,15.72z"/>
</g>
</svg>
